<svg width="51" height="51" viewBox="0 0 51 51" fill="none" xmlns="http://www.w3.org/2000/svg">
<path d="M42.7988 22.541H36.1953V18.627C36.1953 17.503 36.4348 16.8463 36.7416 16.4808C36.9601 16.2204 37.5692 15.9082 39.0137 15.9082L39.0219 15.9082L43.0727 15.875L44.0645 15.8668V14.875V8.00195V7.13466L43.2059 7.012C41.7414 6.80279 39.716 6.70312 37.1543 6.70312C33.9354 6.70312 31.2581 7.65702 29.2321 9.64573C27.1869 11.6533 26.2266 14.4417 26.2266 17.8633V22.541H20.5859H19.5859V23.541V31.2441V32.2441H20.5859H26.2266V50H9.5625C7.19486 50 5.19657 49.171 3.51277 47.4872C1.82898 45.8034 1 43.8051 1 41.4375V9.5625C1 7.19486 1.82898 5.19657 3.51277 3.51277C5.19657 1.82898 7.19486 1 9.5625 1H41.4375C43.8051 1 45.8034 1.82898 47.4872 3.51277C49.171 5.19657 50 7.19486 50 9.5625V41.4375C50 43.8051 49.171 45.8034 47.4872 47.4872C45.8034 49.171 43.8051 50 41.4375 50H36.1953V32.2441H41.8027H42.6818L42.7945 31.3724L43.7906 23.6693L43.9365 22.541H42.7988Z" fill="#D9D9D9" stroke="#A4A4A4" stroke-width="2"/>
</svg>
