<svg width="54" height="54" viewBox="0 0 54 54" fill="none" xmlns="http://www.w3.org/2000/svg">
<path d="M27 14.9688C24.6204 14.9688 22.2943 15.6744 20.3158 16.9964C18.3373 18.3184 16.7952 20.1974 15.8846 22.3958C14.974 24.5943 14.7357 27.0133 15.1999 29.3472C15.6642 31.681 16.81 33.8248 18.4926 35.5074C20.1752 37.19 22.319 38.3358 24.6528 38.8001C26.9867 39.2643 29.4057 39.026 31.6042 38.1154C33.8026 37.2048 35.6816 35.6627 37.0036 33.6842C38.3256 31.7057 39.0312 29.3796 39.0312 27C39.0312 23.8091 37.7637 20.7489 35.5074 18.4926C33.2511 16.2363 30.1909 14.9688 27 14.9688ZM27 36.8438C25.0531 36.8438 23.1499 36.2664 21.5311 35.1848C19.9123 34.1031 18.6506 32.5657 17.9056 30.767C17.1605 28.9683 16.9656 26.9891 17.3454 25.0796C17.7252 23.1701 18.6627 21.4161 20.0394 20.0394C21.4161 18.6627 23.1701 17.7252 25.0796 17.3454C26.9891 16.9656 28.9683 17.1605 30.767 17.9056C32.5657 18.6506 34.1031 19.9123 35.1848 21.5311C36.2664 23.1499 36.8437 25.0531 36.8438 27C36.8437 29.6107 35.8066 32.1145 33.9606 33.9606C32.1145 35.8066 29.6107 36.8438 27 36.8438V36.8438ZM39.0312 0.75H14.9688C11.1977 0.75 7.58111 2.24804 4.91458 4.91458C2.24804 7.58111 0.75 11.1977 0.75 14.9688V39.0312C0.75 40.8985 1.11778 42.7474 1.83234 44.4725C2.5469 46.1976 3.59424 47.7651 4.91458 49.0854C7.58111 51.752 11.1977 53.25 14.9688 53.25H39.0312C40.8985 53.25 42.7474 52.8822 44.4725 52.1677C46.1976 51.4531 47.7651 50.4058 49.0854 49.0854C50.4058 47.7651 51.4531 46.1976 52.1677 44.4725C52.8822 42.7474 53.25 40.8985 53.25 39.0312V14.9688C53.25 13.1015 52.8822 11.2526 52.1677 9.52747C51.4531 7.80237 50.4058 6.23491 49.0854 4.91458C47.7651 3.59424 46.1976 2.5469 44.4725 1.83234C42.7474 1.11778 40.8985 0.75 39.0312 0.75V0.75ZM51.0625 39.0312C51.0625 42.2221 49.7949 45.2823 47.5386 47.5386C45.2823 49.7949 42.2221 51.0625 39.0312 51.0625H14.9688C11.7779 51.0625 8.71767 49.7949 6.46137 47.5386C4.20507 45.2823 2.9375 42.2221 2.9375 39.0312V14.9688C2.9375 11.7779 4.20507 8.71767 6.46137 6.46137C8.71767 4.20507 11.7779 2.9375 14.9688 2.9375H39.0312C42.2221 2.9375 45.2823 4.20507 47.5386 6.46137C49.7949 8.71767 51.0625 11.7779 51.0625 14.9688V39.0312ZM43.4062 12.7812C43.4062 13.2139 43.278 13.6368 43.0376 13.9966C42.7972 14.3563 42.4556 14.6367 42.0559 14.8022C41.6562 14.9678 41.2163 15.0111 40.792 14.9267C40.3677 14.8423 39.9779 14.634 39.672 14.328C39.366 14.0221 39.1577 13.6323 39.0733 13.208C38.9889 12.7837 39.0322 12.3438 39.1978 11.9441C39.3633 11.5444 39.6437 11.2028 40.0034 10.9624C40.3632 10.722 40.7861 10.5938 41.2188 10.5938C41.7989 10.5938 42.3553 10.8242 42.7655 11.2345C43.1758 11.6447 43.4062 12.2011 43.4062 12.7812Z" fill="#A4A4A4"/>
</svg>
