<svg width="68" height="54" viewBox="0 0 68 54" fill="none" xmlns="http://www.w3.org/2000/svg">
<path d="M44.6875 25.9688L29.6875 15.9688C29.4995 15.8436 29.2811 15.7717 29.0555 15.7607C28.8299 15.7497 28.6055 15.8 28.4062 15.9063C28.2065 16.0102 28.0395 16.1674 27.9236 16.3605C27.8078 16.5535 27.7477 16.7749 27.75 17.0001V37.0001C27.7477 37.2252 27.8078 37.4466 27.9236 37.6396C28.0395 37.8327 28.2065 37.9899 28.4062 38.0938C28.5902 38.189 28.793 38.2423 29 38.2501C29.247 38.2546 29.4886 38.1777 29.6875 38.0313L44.6875 28.0313C44.8618 27.9215 45.0054 27.7694 45.105 27.589C45.2045 27.4087 45.2567 27.206 45.2567 27.0001C45.2567 26.7941 45.2045 26.5914 45.105 26.4111C45.0054 26.2308 44.8618 26.0786 44.6875 25.9688ZM30.25 34.6563V19.3438L41.75 27.0001L30.25 34.6563ZM66.0312 9.12506C65.7731 8.17225 65.2971 7.29243 64.641 6.55491C63.9848 5.81739 63.1663 5.24233 62.25 4.87506C51.6875 0.812555 34.7188 0.875056 34 0.875056C33.2812 0.875056 16.3125 0.812555 5.75 4.87506C4.8337 5.24233 4.01522 5.81739 3.35904 6.55491C2.70287 7.29243 2.22694 8.17225 1.96875 9.12506C1.1875 12.1563 0.25 17.7188 0.25 27.0001C0.25 36.2813 1.1875 41.8438 1.96875 44.8751C2.22694 45.8279 2.70287 46.7077 3.35904 47.4452C4.01522 48.1827 4.8337 48.7578 5.75 49.1251C16.3125 53.1876 33.2812 53.1251 34 53.1251H34.2188C36.375 53.1251 52.2188 53.0001 62.25 49.1251C63.1663 48.7578 63.9848 48.1827 64.641 47.4452C65.2971 46.7077 65.7731 45.8279 66.0312 44.8751C66.8125 41.8438 67.75 36.2813 67.75 27.0001C67.75 17.7188 66.8125 12.1563 66.0312 9.12506ZM63.5938 44.2501C63.4436 44.8189 63.1616 45.3444 62.7708 45.7842C62.3799 46.2239 61.8911 46.5655 61.3438 46.7813C51.2188 50.6876 34.1875 50.6251 34 50.6251C33.8125 50.6251 16.7812 50.6876 6.65625 46.7813C6.10894 46.5655 5.62009 46.2239 5.22922 45.7842C4.83836 45.3444 4.55644 44.8189 4.40625 44.2501C3.65625 41.3438 2.75 36.0001 2.75 27.0001C2.75 18.0001 3.65625 12.6563 4.40625 9.75006C4.55644 9.18122 4.83836 8.65569 5.22922 8.21596C5.62009 7.77624 6.10894 7.43465 6.65625 7.2188C16.7812 3.31255 33.8125 3.37506 34 3.37506C34.1875 3.37506 51.2188 3.31255 61.3438 7.2188C61.8911 7.43465 62.3799 7.77624 62.7708 8.21596C63.1616 8.65569 63.4436 9.18122 63.5938 9.75006C64.3438 12.6563 65.25 18.0001 65.25 27.0001C65.25 36.0001 64.3438 41.3438 63.5938 44.2501Z" fill="#A4A4A4"/>
</svg>
